<?xml version="1.0" standalone="no"?>
<!DOCTYPE svg PUBLIC "-//W3C//DTD SVG 20010904//EN"
 "http://www.w3.org/TR/2001/REC-SVG-20010904/DTD/svg10.dtd">
<svg version="1.0" xmlns="http://www.w3.org/2000/svg"
 width="700.000000pt" height="700.000000pt" viewBox="0 0 700.000000 700.000000"
 preserveAspectRatio="xMidYMid meet">
<metadata>
Created by potrace 1.14, written by Peter Selinger 2001-2017
</metadata>
<g transform="translate(0.000000,700.000000) scale(0.100000,-0.100000)"
fill="#000000" stroke="none">
<path d="M3388 6815 c-2 -1 -50 -5 -108 -8 -91 -5 -278 -27 -375 -43 -183 -31
-463 -112 -656 -190 -603 -243 -1163 -711 -1532 -1278 -119 -183 -106 -161
-185 -316 -109 -214 -208 -476 -248 -652 -2 -10 -6 -26 -8 -35 -34 -139 -39
-167 -56 -280 -6 -43 -13 -91 -15 -108 -27 -184 -27 -726 -1 -885 3 -14 7 -45
10 -70 6 -42 19 -122 31 -180 3 -14 7 -36 10 -50 11 -58 15 -74 39 -164 27
-98 97 -306 123 -366 8 -19 21 -48 28 -65 106 -245 273 -524 444 -740 137
-172 324 -365 491 -505 36 -30 67 -58 70 -61 19 -22 343 -249 356 -249 2 0 22
-11 42 -24 122 -77 356 -186 538 -251 137 -49 386 -116 489 -131 17 -3 55 -9
85 -14 30 -6 80 -12 110 -16 30 -3 66 -7 80 -10 134 -22 637 -23 780 0 14 2
51 7 84 11 65 8 77 9 196 31 453 82 912 280 1290 557 353 258 722 659 925
1002 16 28 38 64 47 80 30 50 175 348 183 375 4 14 11 30 15 35 9 12 80 228
109 330 33 120 62 252 76 360 2 11 6 40 10 65 35 225 41 723 10 900 -2 14 -6
48 -9 75 -28 252 -130 622 -241 870 -84 188 -227 443 -308 550 -4 6 -40 53
-80 106 -148 198 -356 419 -533 568 -16 13 -43 36 -60 50 -32 27 -44 36 -163
124 -322 237 -801 451 -1162 521 -13 2 -58 11 -99 19 -91 19 -131 25 -190 32
-25 3 -63 7 -85 10 -117 13 -186 17 -361 20 -106 1 -195 1 -196 0z"/>
</g>
</svg>
